<svg aria-hidden="true" style="position: absolute; width: 0; height: 0; overflow: hidden;" version="1.1" xmlns="http://www.w3.org/2000/svg" xmlns:xlink="http://www.w3.org/1999/xlink">
<defs>
<symbol id="icon-o" viewBox="0 0 32 32">
<path fill="#f2b137" style="fill: var(--color1, #f2b137)" d="M16 0c8.837 0 16 7.163 16 16s-7.163 16-16 16c-8.836 0-16-7.163-16-16s7.163-16 16-16zM16 9.482c-3.6 0-6.518 2.918-6.518 6.518s2.918 6.518 6.518 6.518c3.6 0 6.518-2.918 6.518-6.518s-2.918-6.518-6.518-6.518z"></path>
</symbol>
<symbol id="icon-o-outline" viewBox="0 0 32 32">
<path fill="none" stroke="#f2b137" style="stroke: var(--color1, #f2b137)" stroke-linejoin="miter" stroke-linecap="butt" stroke-miterlimit="4" stroke-width="0.9697" d="M16 0.485c8.569 0 15.515 6.946 15.515 15.515s-6.946 15.515-15.515 15.515c-8.569 0-15.515-6.946-15.515-15.515s6.946-15.515 15.515-15.515zM16 9.679c-3.491 0-6.321 2.83-6.321 6.321s2.83 6.321 6.321 6.321c3.491 0 6.321-2.83 6.321-6.321s-2.83-6.321-6.321-6.321z"></path>
</symbol>
<symbol id="icon-restart" viewBox="0 0 32 32">
<path d="M31.238 0h-3.008c-0 0-0.001 0-0.001 0-0.421 0-0.762 0.341-0.762 0.762 0 0.013 0 0.026 0.001 0.039l-0-0.002 0.254 5.254c-2.897-3.402-7.184-5.546-11.972-5.546-0.005 0-0.011 0-0.016 0h0.001c-8.672 0-15.742 7.082-15.736 15.76 0.006 8.688 7.050 15.733 15.736 15.733 0.006 0 0.014 0 0.021 0 4.056 0 7.753-1.541 10.536-4.069l-0.013 0.012c0.156-0.14 0.254-0.343 0.254-0.568 0-0.211-0.086-0.401-0.224-0.539l-2.157-2.158c-0.138-0.138-0.328-0.223-0.539-0.223-0.192 0-0.368 0.071-0.502 0.189l0.001-0.001c-1.956 1.729-4.543 2.785-7.376 2.785-3.335 0-6.328-1.462-8.373-3.781l-0.011-0.012c-1.728-1.958-2.783-4.547-2.783-7.381 0-3.336 1.462-6.331 3.779-8.38l0.012-0.010c1.956-1.729 4.543-2.785 7.377-2.785 3.845 0 7.236 1.944 9.243 4.903l0.025 0.039-6.443-0.309c-0.011-0.001-0.023-0.001-0.035-0.001-0.421 0-0.762 0.341-0.762 0.762 0 0 0 0.001 0 0.001v-0 3.010c0 0.421 0.341 0.762 0.762 0.762h12.71c0.421 0 0.762-0.341 0.762-0.762v0-12.72c0-0.421-0.341-0.762-0.762-0.762v0z"></path>
</symbol>
<symbol id="icon-x" viewBox="0 0 32 32">
<path fill="#31c3bd" style="fill: var(--color2, #31c3bd)" d="M7.501 0.574l8.499 8.499 8.499-8.499c0.271-0.272 0.646-0.439 1.061-0.439s0.789 0.168 1.061 0.439l4.806 4.806c0.271 0.271 0.439 0.646 0.439 1.061s-0.168 0.789-0.439 1.061l-8.499 8.499 8.499 8.499c0.271 0.271 0.439 0.646 0.439 1.061s-0.168 0.789-0.439 1.061l-4.806 4.806c-0.271 0.271-0.646 0.439-1.061 0.439s-0.789-0.168-1.061-0.439l-8.499-8.499-8.499 8.499c-0.271 0.271-0.646 0.439-1.061 0.439s-0.789-0.168-1.061-0.439l-4.806-4.806c-0.272-0.271-0.439-0.646-0.439-1.061s0.168-0.789 0.439-1.061l8.499-8.498-8.499-8.499c-0.272-0.271-0.439-0.646-0.439-1.061s0.168-0.789 0.439-1.061l4.806-4.806c0.271-0.272 0.646-0.439 1.061-0.439s0.789 0.168 1.061 0.439v0z"></path>
</symbol>
<symbol id="icon-x-outline" viewBox="0 0 32 32">
<path fill="none" stroke="#31c3bd" style="stroke: var(--color2, #31c3bd)" stroke-linejoin="miter" stroke-linecap="butt" stroke-miterlimit="4" stroke-width="1" d="M25.56 0.634c0.256 0 0.512 0.098 0.707 0.293l4.805 4.806c0.195 0.196 0.293 0.452 0.293 0.707s-0.098 0.511-0.293 0.707l-8.852 8.852 8.852 8.852c0.195 0.195 0.293 0.451 0.293 0.707s-0.098 0.512-0.293 0.707l-4.806 4.805c-0.195 0.195-0.451 0.293-0.707 0.293-0 0-0.001 0-0.001 0-0.276 0-0.525-0.112-0.706-0.293l-8.853-8.852-8.852 8.852c-0.195 0.195-0.451 0.293-0.707 0.293-0 0-0.001 0-0.002 0-0.276 0-0.525-0.112-0.706-0.293l-4.806-4.806c-0.181-0.181-0.293-0.43-0.293-0.706 0-0.001 0-0.001 0-0.002v0c0-0.256 0.098-0.512 0.293-0.707l8.852-8.852-8.852-8.852c-0.181-0.181-0.293-0.43-0.293-0.706 0-0 0-0.001 0-0.001v0c0-0.256 0.098-0.512 0.293-0.708l4.806-4.806c0.196-0.196 0.452-0.293 0.707-0.293s0.511 0.098 0.707 0.293l8.852 8.852 8.852-8.852c0.195-0.196 0.451-0.293 0.707-0.293z"></path>
</symbol>
<symbol id="logo" viewBox="0 0 72 32">
<path fill="#31c3bd" style="fill: var(--color2, #31c3bd)" d="M8.562 1.634l7.438 7.439 7.438-7.439c0.543-0.543 1.293-0.879 2.122-0.879s1.579 0.336 2.122 0.879l2.685 2.685c0.543 0.543 0.879 1.293 0.879 2.122s-0.336 1.579-0.879 2.122l-7.439 7.438 7.439 7.438c0.543 0.543 0.879 1.293 0.879 2.122s-0.336 1.579-0.879 2.122l-2.685 2.685c-0.543 0.543-1.293 0.879-2.122 0.879s-1.579-0.336-2.122-0.879l-7.438-7.439-7.438 7.439c-0.543 0.543-1.293 0.879-2.122 0.879s-1.579-0.336-2.122-0.879l-2.685-2.686c-0.543-0.543-0.879-1.293-0.879-2.122s0.336-1.579 0.879-2.122l7.439-7.437-7.439-7.438c-0.543-0.543-0.879-1.293-0.879-2.122s0.336-1.579 0.879-2.122l2.686-2.685c0.543-0.543 1.293-0.879 2.122-0.879s1.579 0.336 2.122 0.879v0z"></path>
<path fill="#f2b137" style="fill: var(--color1, #f2b137)" d="M56.1 0c8.765 0 15.87 7.106 15.87 15.87 0 8.766-7.105 15.871-15.87 15.871s-15.87-7.105-15.87-15.87c0-8.765 7.104-15.871 15.87-15.871zM56.1 9.405c-0.024-0-0.052-0.001-0.080-0.001-3.571 0-6.466 2.895-6.466 6.466s2.895 6.466 6.466 6.466c0.028 0 0.056-0 0.085-0.001l-0.004 0c3.536-0.045 6.386-2.923 6.386-6.465s-2.849-6.42-6.381-6.465l-0.004-0z"></path>
</symbol>
</defs>
</svg>
